{"title":"Prayers.For.Bobby.2009.DVDRip.XviD-LUMiX","uid":5243631,"size":751264787,"categoryP":"video","categoryS":"movies","magnet":"?xt=urn:btih:a2a02b8f172a7522ce19441e1e240e8da757c91b&amp;dn=Prayers.For.Bobby.2009.DVDRip.XviD-LUMiX&amp;tr=udp%3A%2F%2Ftracker.openbittorrent.com%3A80&amp;tr=udp%3A%2F%2Fopen.demonii.com%3A1337&amp;tr=udp%3A%2F%2Ftracker.coppersurfer.tk%3A6969&amp;tr=udp%3A%2F%2Fexodus.desync.com%3A6969","seeders":26,"leechers":2,"uploader":"CODYBOSS1969","files":6,"time":1261894528,"description":"General\nComplete name : Prayers.For.Bobby.2009.DVDRip.XviD-LUMiX [xvid-bobby.avi]\nFormat : AVI\nFormat/Info : Audio Video Interleave\nFile size : 701 MiB\nDuration : 1h 25mn\nOverall bit rate : 1 145 Kbps\nWriting application : VirtualDubMod 1.5.10.2 (build 2540/release)\nWriting library : VirtualDubMod build 2540/release\n\nVideo\nID : 0\nFormat : MPEG-4 Visual\nFormat profile : AdvancedSimple@L5\nFormat settings, BVOP : Yes\nFormat settings, QPel : No\nFormat settings, GMC : No warppoints\nFormat settings, Matrix : Default (H.263)\nCodec ID : XVID\nCodec ID/Hint : XviD\nDuration : 1h 25mn\nBit rate : 943 Kbps\nWidth : 640 pixels\nHeight : 368 pixels\nDisplay aspect ratio : 16/9\nFrame rate : 25.000 fps\nResolution : 24 bits\nColorimetry : 4:2:0\nScan type : Progressive\nBits/(Pixel*Frame) : 0.160\nStream size : 577 MiB (82%)\nWriting library : XviD 1.2.1 (UTC 2008-12-04)\n\nAudio\nID : 1\nFormat : AC-3\nFormat/Info : Audio Coding 3\nCodec ID : 2000\nDuration : 1h 25mn\nBit rate mode : Constant\nBit rate : 192 Kbps\nChannel(s) : 2 channels\nChannel positions : L R\nSampling rate : 48.0 KHz\nStream size : 118 MiB (17%)\nAlignment : Split accross interleaves\nInterleave, duration : 40 ms (1.00 video frame)\nInterleave, preload duration : 500 ms\n\n\n\nSubtitles included: ENGLISH, ROMANIAN.\n\n\nIMDB rating: 8.4/10  from  1,282 votes \n\n\nIMDB link:   &lt;a href=&quot; http://us.imdb.com/title/tt1073510/&quot; rel=&quot;nofollow&quot; target=&quot;_NEW&quot;&gt; http://us.imdb.com/title/tt1073510/&lt;/a&gt;\n\n\n\nDON'T FORGET TO SEED!","torrent":{"xt":"urn:btih:a2a02b8f172a7522ce19441e1e240e8da757c91b","amp;dn":"Prayers.For.Bobby.2009.DVDRip.XviD-LUMiX","amp;tr":["udp%3A%2F%2Ftracker.openbittorrent.com%3A80","udp%3A%2F%2Fopen.demonii.com%3A1337","udp%3A%2F%2Ftracker.coppersurfer.tk%3A6969","udp%3A%2F%2Fexodus.desync.com%3A6969"],"infoHash":"a2a02b8f172a7522ce19441e1e240e8da757c91b","infoHashBuffer":{"type":"Buffer","data":[162,160,43,143,23,42,117,34,206,25,68,30,30,36,14,141,167,87,201,27]},"announce":[],"urlList":[]}}